<?xml version="1.0" standalone="no"?>
<!DOCTYPE svg PUBLIC "-//W3C//DTD SVG 20010904//EN"
 "http://www.w3.org/TR/2001/REC-SVG-20010904/DTD/svg10.dtd">
<svg version="1.0" xmlns="http://www.w3.org/2000/svg"
 width="1586.000000pt" height="1683.000000pt" viewBox="0 0 1586.000000 1683.000000"
 preserveAspectRatio="xMidYMid meet">

<g transform="translate(0.000000,1683.000000) scale(0.100000,-0.100000)"
fill="#000000" stroke="none">
<path d="M7727 16353 c-11 -17 -2089 -7517 -2112 -7618 -50 -224 -60 -324 -59
-580 1 -272 15 -377 79 -589 98 -324 255 -577 524 -847 169 -169 258 -239 545
-432 523 -351 791 -588 976 -864 87 -130 136 -232 167 -352 22 -87 24 -110 20
-246 -5 -179 -26 -267 -92 -401 -77 -157 -222 -291 -393 -364 -122 -52 -221
-71 -392 -77 -133 -4 -170 -2 -259 17 -310 63 -593 241 -941 590 -190 190
-341 365 -652 755 -336 422 -498 621 -611 755 -571 669 -1045 1032 -1556 1190
-497 155 -1103 91 -1590 -166 -342 -181 -647 -462 -876 -809 -86 -130 -169
-281 -161 -293 3 -5 23 -12 45 -16 75 -12 279 -76 412 -129 431 -173 801 -428
1194 -821 481 -481 864 -1029 1293 -1851 248 -475 427 -764 670 -1085 782
-1028 1738 -1606 2797 -1691 197 -16 533 -6 737 20 802 105 1462 444 2088
1070 262 262 421 455 839 1015 311 416 398 522 529 648 258 248 571 355 1143
389 155 10 278 9 609 -2 508 -17 876 -17 990 -1 257 38 432 128 637 326 181
173 337 391 476 663 68 133 177 382 177 404 0 5 -872 9 -1996 9 l-1996 0 7 63
c22 186 109 341 290 515 274 264 639 465 1615 890 942 409 1315 595 1664 832
630 426 965 939 1062 1625 21 145 23 463 5 610 -14 117 -55 324 -73 376 l-13
37 -2900 -1589 c-1595 -874 -2904 -1587 -2910 -1585 -5 1 -18 29 -29 62 -29
89 -27 288 4 414 62 259 180 476 449 830 262 346 526 639 1356 1505 700 730
1044 1113 1344 1499 198 255 386 537 474 711 282 564 227 1258 -161 2009 -119
231 -348 586 -370 572 -4 -2 -1082 -1345 -2397 -2985 -1314 -1639 -2394 -2979
-2399 -2977 -18 4 -84 127 -109 203 -81 245 -74 632 19 1098 105 525 242 975
684 2240 257 734 332 958 416 1245 146 494 190 760 173 1042 -27 439 -163 832
-417 1203 -105 153 -176 239 -327 394 -192 197 -384 353 -600 488 -103 65
-111 68 -118 56z"/>
</g>
</svg>
